<?xml version="1.0" encoding="UTF-8"?>
<svg version="1.1" viewBox="0 0 27.5 27.5" xml:space="preserve" xmlns="http://www.w3.org/2000/svg" xmlns:cc="http://creativecommons.org/ns#" xmlns:dc="http://purl.org/dc/elements/1.1/" xmlns:rdf="http://www.w3.org/1999/02/22-rdf-syntax-ns#"><metadata><rdf:RDF><cc:Work rdf:about=""><dc:format>image/svg+xml</dc:format><dc:type rdf:resource="http://purl.org/dc/dcmitype/StillImage"/><dc:title/></cc:Work></rdf:RDF></metadata><defs><clipPath id="a"><path d="m0 22h22v-22h-22v22z"/></clipPath></defs><g transform="matrix(1.25,0,0,-1.25,0,27.5)"><g clip-path="url(#a)"><g transform="translate(3.5,7.2007)"><path d="m0 0c0-0.298 0.12-0.557 0.318-0.755 0.199-0.2 0.537-0.319 1.015-0.359 0.301-0.026 0.611-0.043 0.922-0.055l-2.255 4.936v-3.767z" fill="#424142"/></g><g transform="translate(18.182 15.555)"><path d="m0 0c-0.199 0.199-0.537 0.318-1.014 0.358-0.297 0.026-0.603 0.042-0.909 0.054l2.241-4.806v3.638c0 0.298-0.119 0.557-0.318 0.756" fill="#424142"/></g><g transform="translate(6.9014 15.993)"><path d="m0 0c-0.676 0-1.392-0.02-2.069-0.08-0.477-0.039-0.816-0.159-1.014-0.357-0.199-0.2-0.318-0.458-0.318-0.756v-2.665c0.824 0.437 8.104 3.858 8.104 3.858h-4.703z" fill="#424142"/></g><g transform="translate(16.667 9.0601)"><path d="m0 0-6.547-3.053h4.979c0.677 0 1.393 0.021 2.069 0.08 0.477 0.04 0.815 0.159 1.014 0.358s0.318 0.457 0.318 0.756v2.793c-0.824-0.437-0.956-0.525-1.833-0.934" fill="#424142"/></g><g transform="translate(10.498 9.9867)"><path d="m0 0h2e-3c-1e-3 1e-3 -3e-3 2e-3 -4e-3 3e-3l-0.657 1.41c-1e-3 2e-3 0 3e-3 -1e-3 4e-3v-1e-3l-0.031 0.066c-0.128 0.273-0.433 0.368-0.687 0.25l-2.202-1.027c-0.255-0.118-0.378-0.414-0.25-0.687l0.03-0.066h-1e-3c0-1e-3 2e-3 -2e-3 3e-3 -3e-3l0.657-1.409c1e-3 -2e-3 0-4e-3 1e-3 -5e-3v1e-3l0.031-0.066c0.128-0.274 0.434-0.368 0.687-0.25l2.202 1.026c0.254 0.119 0.378 0.415 0.25 0.688l-0.03 0.066z" fill="#424142"/></g><g transform="translate(15.049 12.109)"><path d="m0 0 2e-3 -1e-3c-1e-3 2e-3 -3e-3 2e-3 -3e-3 4e-3l-0.658 1.409c-1e-3 2e-3 0 3e-3 -1e-3 4e-3v-1e-3l-0.031 0.066c-0.128 0.274-0.433 0.369-0.687 0.25l-2.202-1.026c-0.254-0.119-0.378-0.414-0.25-0.687l0.031-0.067-2e-3 1e-3c0-2e-3 2e-3 -2e-3 3e-3 -4e-3l0.657-1.409c1e-3 -2e-3 0-3e-3 1e-3 -4e-3v1e-3l0.032-0.066c0.127-0.274 0.433-0.369 0.686-0.25l2.203 1.026c0.254 0.119 0.377 0.414 0.25 0.688l-0.031 0.066z" fill="#424142"/></g><g transform="translate(3.5762 .9985)"><path d="m0 0h14.848c0.011 1e-3 0.023 3e-3 0.035 3e-3 0.764 0.054 2.542 0.418 2.542 2.652v14.692c0 2.234-1.778 2.598-2.542 2.652-0.014 1e-3 -0.028 2e-3 -0.042 4e-3h-14.835c-0.013-2e-3 -0.027-3e-3 -0.041-4e-3 -0.765-0.054-2.543-0.418-2.543-2.652v-14.692c0-2.234 1.778-2.598 2.543-2.652 0.012 0 0.023-2e-3 0.035-3e-3m14.917-0.997h-14.987c-0.037 0-0.073 4e-3 -0.108 0.012-1.656 0.14-3.397 1.166-3.397 3.64v14.692c0 2.472 1.738 3.498 3.392 3.64 0.037 9e-3 0.075 0.013 0.113 0.013h14.987c0.04 0 0.079-5e-3 0.115-0.013 1.655-0.143 3.39-1.17 3.39-3.64v-14.692c0-2.475-1.742-3.5-3.398-3.64-0.034-8e-3 -0.07-0.012-0.107-0.012" fill="#424142"/></g></g></g></svg>